<svg xmlns="http://www.w3.org/2000/svg" viewBox="0 0 480 360" role="img" aria-label="Livro de receitas">
  <defs>
    <linearGradient id="bg" x1="0%" y1="0%" x2="100%" y2="100%">
      <stop offset="0%" stop-color="#ffeecf" />
      <stop offset="100%" stop-color="#ffd7b4" />
    </linearGradient>
  </defs>
  <rect width="480" height="360" rx="48" fill="url(#bg)" />
  <circle cx="240" cy="188" r="116" fill="#fff3df" />
  <circle cx="240" cy="188" r="96" fill="#fff9f0" />
  <circle cx="370" cy="84" r="42" fill="#fff6e7" />
  <path d="M156 140c0-12 10-22 22-22h42c21 0 40 6 56 18v102c-16-12-35-18-56-18h-42c-12 0-22-10-22-22z" fill="#f5d6a4" />
  <path d="M324 140c0-12-10-22-22-22h-42c-21 0-40 6-56 18v102c16-12 35-18 56-18h42c12 0 22-10 22-22z" fill="#f2b79a" />
  <path d="M240 128v116" stroke="#d5a269" stroke-width="12" stroke-linecap="round" />
  <path d="M182 156h52" stroke="#b56b4e" stroke-width="8" stroke-linecap="round" />
  <path d="M182 184h52" stroke="#b56b4e" stroke-width="8" stroke-linecap="round" />
  <path d="M246 156h52" stroke="#b56b4e" stroke-width="8" stroke-linecap="round" />
  <path d="M246 184h52" stroke="#b56b4e" stroke-width="8" stroke-linecap="round" />
</svg>
