<svg xmlns="http://www.w3.org/2000/svg" viewBox="0 0 480 360" role="img" aria-label="Sopas">
  <defs>
    <linearGradient id="bg" x1="0%" y1="0%" x2="100%" y2="100%">
      <stop offset="0%" stop-color="#ffe8c8" />
      <stop offset="100%" stop-color="#ffd5a6" />
    </linearGradient>
  </defs>
  <rect width="480" height="360" rx="48" fill="url(#bg)" />
  <circle cx="240" cy="188" r="116" fill="#fff2df" />
  <circle cx="240" cy="188" r="96" fill="#fff9f2" />
  <circle cx="368" cy="84" r="42" fill="#fff5e7" />
  <path d="M198 138c-10-18-6-34 8-48" stroke="#ffffff" stroke-width="12" stroke-linecap="round" fill="none" />
  <path d="M240 130c-10-18-6-34 8-48" stroke="#ffffff" stroke-width="12" stroke-linecap="round" fill="none" />
  <path d="M282 138c-10-18-6-34 8-48" stroke="#ffffff" stroke-width="12" stroke-linecap="round" fill="none" />
  <ellipse cx="240" cy="218" rx="96" ry="28" fill="#fff8ef" />
  <path d="M152 218h176c0 44-28 74-88 74s-88-30-88-74z" fill="#cb744b" />
  <ellipse cx="240" cy="212" rx="76" ry="18" fill="#f6c767" />
  <circle cx="212" cy="212" r="7" fill="#8ab06e" />
  <circle cx="240" cy="220" r="7" fill="#e57a58" />
  <circle cx="268" cy="208" r="6" fill="#8ab06e" />
</svg>
